# xmcd CD database file
#
# Track frame offsets:
#	150
#	16340
#	28450
#	45733
#	59485
#	70965
#	89356
#	103692
#	114016
#	131524
#	143021
#	153631
#	168732
#	181489
#	189941
#	205331
#	217349
#	237370
#	261824
#
# Disc length: 3574 seconds
#
# Revision: 0
# Processed by: cddbd v1.5.1PL0 Copyright (c) Steve Scherf et al.
# Submitted via: CDex 1.51
#
DISCID=1d0df413
DTITLE=Louis Armstrong - Satchmo Live In Florence '52
DYEAR=2005
DGENRE=Jazz
TTITLE0=On The Sunny Side Of The Street
TTITLE1=Little Coquette
TTITLE2=That's My Desire
TTITLE3=St.Louis Blues
TTITLE4=On The Alamo
TTITLE5=How High The Moon 
TTITLE6=Bugle Call Rag
TTITLE7=When it's Sleepy Time Down South
TTITLE8=Basin Street Blues
TTITLE9=Velma's Blues
TTITLE10=Interview with Louis Armstrong
TTITLE11=Save It Pretty Mama
TTITLE12=2.19 Blues
TTITLE13=Among My Souvenirs
TTITLE14=Mahogany Hall Stomp
TTITLE15=Love Me Or Leave Me
TTITLE16=Medly: Shadrack - When The Saints
TTITLE17=Way Down Yonder In New Orleans
TTITLE18=Louis Armstrong:memoirs from the RAI tre programme"My only sin is The skin"
EXTD=YEAR: 2005
EXTT0=
EXTT1=
EXTT2=
EXTT3=
EXTT4=
EXTT5=
EXTT6=
EXTT7=
EXTT8=
EXTT9=
EXTT10=
EXTT11=
EXTT12=
EXTT13=
EXTT14=
EXTT15=
EXTT16=
EXTT17=
EXTT18=
PLAYORDER=
